User Type,Username,Date,Text
,AdrianwithoutA,2010-11-25T15:17Z,"Video is real. Its REC 2 but the audio, but it doesnt have dual audio. just same track """"Portugese"" (Im not even sure coz i dont understand).

Well, i hope i could find same torrent but with a real dual audio with English.

anyway, thanks.. :(((("
,coolvicks,2010-11-30T17:08Z,Totally agree with AdrianwithoutA... There's no English Audio in this one :-(
,iDoxD,2010-12-30T14:21Z,"For those that are saying that there's not dual audio here's a copy of the MediaInfo

General
Complete name                    : F:\downloads\Rec.2.Possuidos.DVDrip.XviD.Dual.Audio-HyperX-[semlimites.org]\Rec.2.Possuidos.DVDrip.XviD.Dual.Audio-HyperX-[semlimites.org].avi
Format                           : AVI
Format/Info                      : Audio Video Interleave
File size                        : 797 MiB
Duration                         : 1h 21mn
Overall bit rate                 : 1 371 Kbps
Writing application              : FairUse Wizard - http://fairusewizard.com
Writing library                  : The best and REALLY easy backup tool

Video
ID                               : 0
Format                           : MPEG-4 Visual
Format profile                   : Advanced Simple@L5
Format settings, BVOP            : Yes
Format settings, QPel            : No
Format settings, GMC             : No warppoints
Format settings, Matrix          : Default (H.263)
Muxing mode                      : Packed bitstream
Codec ID                         : XVID
Codec ID/Hint                    : XviD
Duration                         : 1h 21mn
Bit rate                         : 1 102 Kbps
Width                            : 688 pixels
Height                           : 368 pixels
Display aspect ratio             : 1.870
Frame rate                       : 23.976 fps
Color space                      : YUV
Chroma subsampling               : 4:2:0
Bit depth                        : 8 bits
Scan type                        : Progressive
Compression mode                 : Lossy
Bits/(Pixel*Frame)               : 0.182
Stream size                      : 641 MiB (80%)
Writing library                  : XviD 1.2.1 (UTC 2008-12-04)

Audio #1
ID                               : 1
Format                           : MPEG Audio
Format version                   : Version 1
Format profile                   : Layer 3
Mode                             : Joint stereo
Mode extension                   : MS Stereo
Codec ID                         : 55
Codec ID/Hint                    : MP3
Duration                         : 1h 21mn
Bit rate mode                    : Constant
Bit rate                         : 128 Kbps
Channel(s)                       : 2 channels
Sampling rate                    : 48.0 KHz
Compression mode                 : Lossy
Stream size                      : 74.2 MiB (9%)
Alignment                        : Aligned on interleaves
Interleave, duration             : 42 ms (1.00 video frame)
Interleave, preload duration     : 504 ms
Writing library                  : LAME3.97 
Encoding settings                : -m j -V 4 -q 2 -lowpass 17 -b 128

Audio #2
ID                               : 2
Format                           : MPEG Audio
Format version                   : Version 1
Format profile                   : Layer 3
Mode                             : Joint stereo
Mode extension                   : MS Stereo
Codec ID                         : 55
Codec ID/Hint                    : MP3
Duration                         : 1h 21mn
Bit rate mode                    : Constant
Bit rate                         : 128 Kbps
Channel(s)                       : 2 channels
Sampling rate                    : 48.0 KHz
Compression mode                 : Lossy
Stream size                      : 74.2 MiB (9%)
Alignment                        : Aligned on interleaves
Interleave, duration             : 42 ms (1.00 video frame)
Interleave, preload duration     : 504 ms
Writing library                  : LAME3.97 
Encoding settings                : -m j -V 4 -q 2 -lowpass 17 -b 128
"
,coolvicks,2011-01-10T11:26Z,iDoxD... There are two audio streams but there is NO ENGLISH audio stream in this release.
,umarnawazkhan,2011-01-13T02:05Z,"@Spirit.Pirate
this is not in english so u should change ur title..
Spoken language:- is a lie...so change it

didn't work with VLC player...
works with media player with shark007 codecs"
,karatists56,2011-03-03T19:44Z,"A ???
V ???"
,bkarankar,2011-09-04T15:07Z,"ASS

waste my 1 day.

its not english.

TPB must kick you off.... you are fucker on the TPB"
,abhisaini99,2012-05-17T04:50Z,"WTF.....there's no english audio stream in this. One is spanish other portugese may be...

complete waste of time and bandwith...............

Atleast remove english from spoken language info.....you retard"
